<svg viewBox="0 0 100 100" fill="none" xmlns="http://www.w3.org/2000/svg">
<path fill-rule="evenodd" clip-rule="evenodd" d="M5.04994 1.26469C3.25474 2.04381 1.41121 3.90728 0.670172 5.69143C-0.553141 8.63623 -0.415204 8.99667 3.77024 13.8351C6.17961 16.6202 9.83747 21.6755 11.8985 25.0691L15.648 31.2408L13.1661 34.1816C6.84916 41.6686 5.73761 60.6436 10.9893 71.3485C15.9963 81.5544 28.0029 89.8326 41.4654 92.3627C44.7387 92.9782 49.4557 94.5053 51.9476 95.7563C62.0845 100.847 75.9709 101.387 89.5049 97.2182C93.932 95.8547 96.7844 94.3367 97.7882 92.8085C101.303 87.4591 100.499 66.8766 96.298 54.7028C95.2479 51.6576 93.7175 45.6204 92.8979 41.2861C92.0774 36.9517 90.2822 30.6454 88.9078 27.2719L86.4088 21.1383L93.3631 15.3612C99.0427 10.6433 100.199 9.19748 99.67 7.47357C98.7024 4.31692 97.1065 2.68839 93.5121 1.19039C88.782 -0.781512 87.9362 -0.56866 82.895 3.85607C77.7107 8.40731 76.1944 8.7286 73.5656 5.83199C72.5466 4.70949 70.1936 2.85506 68.336 1.70947C65.4041 -0.0977726 64.5654 -0.209219 61.9728 0.862074C60.3306 1.54079 57.5789 3.69442 55.8582 5.64825L52.73 9.20049L55.1081 11.0107L57.4853 12.821L54.8222 17.558C52.6585 21.4064 51.3778 22.5249 47.9978 23.5199C45.7082 24.1936 42.3766 25.8482 40.5925 27.1966C36.1432 30.5591 33.1328 29.4004 29.5645 22.9506L26.8148 17.9807L31.2983 14.2437C35.0599 11.1081 35.6831 10.0921 35.1716 7.93441C33.9322 2.71349 28.9272 -0.747376 25.2663 1.08497C24.1588 1.64019 22.0323 3.22755 20.5412 4.61311L17.8308 7.1332L14.3814 3.48659C10.6047 -0.50641 9.65221 -0.733319 5.04994 1.26469ZM14.2092 8.45651L17.3374 12.5539L22.1008 8.25369C27.0434 3.79181 29.0088 3.52274 30.9016 7.04987C31.7917 8.70852 31.256 9.61214 27.3495 13.0409C24.8193 15.2618 22.7492 17.5168 22.7492 18.051C22.7492 18.5851 23.8859 20.6915 25.2754 22.7307L27.8026 26.4386L23.0452 27.6484C20.4284 28.3141 18.2396 28.7679 18.1812 28.6565C15.4214 23.4647 11.5773 17.6433 8.08053 13.3622C5.62686 10.3581 3.61921 7.70048 3.61921 7.4565C3.61921 7.21152 4.35522 6.27778 5.25533 5.38018C7.74626 2.89623 10.7527 3.92937 14.2092 8.45651ZM73.5404 11.1352C80.8682 18.4736 86.435 27.6866 87.8154 34.7609L88.4588 38.0561L84.9801 34.7609C83.0681 32.9497 79.95 30.0751 78.0521 28.3743C76.1542 26.6725 73.3098 23.3271 71.7311 20.9395L68.8616 16.5971L66.8499 19.7648C65.1544 22.4355 64.2221 22.9325 60.9106 22.9325C56.2157 22.9325 55.9901 21.8411 59.5936 16.554L62.2054 12.7206L60.0356 10.4174L57.8659 8.11413L60.5803 5.98561C62.0735 4.81391 63.9643 3.85607 64.7829 3.85607C65.6014 3.85607 69.5422 7.1312 73.5404 11.1352ZM94.3186 5.94745L96.4158 8.03883L92.1317 11.7206C84.3921 18.3722 84.5895 18.313 82.0532 14.7608L79.7939 11.5971L83.9552 7.72658C88.6511 3.35808 91.2709 2.90827 94.3186 5.94745ZM68.2353 27.8994C73.9109 29.6033 81.1843 34.9426 85.405 40.5029C92.4559 49.7932 96.2034 63.4238 96.2316 79.8878C96.2477 89.4451 96.0916 90.2563 93.9833 91.6107C86.0212 96.7262 65.1856 97.6268 55.2561 93.2854C49.0258 90.5615 42.1259 83.5655 38.3603 76.1548C35.372 70.2762 32.6404 58.7551 32.9938 53.5251C33.2516 49.7148 32.5398 48.4699 30.7375 49.5803C28.8618 50.7359 30.1878 65.5383 32.7784 72.3636C33.9805 75.5293 36.5188 80.3757 38.4207 83.1328C40.3226 85.8898 41.8792 88.3456 41.8792 88.5906C41.8792 89.438 34.3098 86.9531 29.5092 84.5314C22.4975 80.9932 17.1532 75.7462 13.9746 69.2793C11.5894 64.4258 11.1806 62.3475 11.1756 55.0613C11.1695 44.7289 13.3171 38.4025 18.3191 34.024C22.3364 30.5059 27.719 29.9687 34.6169 32.3954C38.3603 33.7127 38.8194 33.6766 40.3911 31.9436C41.3305 30.9085 43.9755 29.1073 46.268 27.9396C49.7135 26.1866 51.6617 25.9024 57.4853 26.302C61.3616 26.5691 66.1995 27.287 68.2353 27.8994Z" fill="#2887D9"/>
</svg>
