<svg viewBox="0 0 96 100" fill="none" xmlns="http://www.w3.org/2000/svg">
<path fill-rule="evenodd" clip-rule="evenodd" d="M39.7915 1.38306C39.7915 2.16472 40.2083 2.54689 40.7182 2.23221C41.2281 1.91663 41.4096 1.27725 41.1204 0.810263C40.3388 -0.454808 39.7915 -0.219488 39.7915 1.38306ZM29.3116 7.27243C29.6272 7.78229 30.2666 7.9638 30.7335 7.67466C31.9986 6.893 31.7633 6.34575 30.1607 6.34575C29.3791 6.34575 28.9969 6.76257 29.3116 7.27243ZM39.7915 11.8721C39.7915 12.4029 40.202 12.5845 40.7036 12.2743C41.2053 11.9642 41.6157 11.5301 41.6157 11.3084C41.6157 11.0868 41.2053 10.9062 40.7036 10.9062C40.202 10.9062 39.7915 11.3413 39.7915 11.8721ZM42.9838 15.0188C31.6985 17.5216 25.2163 20.8708 18.5279 27.6549C12.9377 33.3254 8.99201 41.3126 7.71143 49.5506C6.92065 54.6346 6.22017 56.6211 5.09008 56.9805C4.24275 57.2496 2.80621 58.2894 1.89959 59.2908C0.325317 61.0302 0.321669 61.3367 1.8175 66.0814C3.70553 72.0683 5.3099 73.8405 8.84517 73.8405C10.372 73.8405 11.5185 74.3294 11.5203 74.9806C11.5322 78.2696 22.8084 91.4886 27.6862 93.9303C29.0763 94.6262 30.8302 95.6952 31.5827 96.3044C32.3352 96.9146 36.3365 98.0985 40.4756 98.9349C47.5014 100.355 48.4993 100.355 55.5251 98.9349C59.6633 98.0985 63.6655 96.9146 64.418 96.3044C65.1705 95.6952 66.9244 94.6262 68.3145 93.9303C73.1923 91.4886 84.4685 78.2696 84.4804 74.9806C84.4822 74.3294 85.6287 73.8405 87.1555 73.8405C90.6908 73.8405 92.2952 72.0683 94.1832 66.0814C95.679 61.3367 95.6754 61.0302 94.1011 59.2908C93.1945 58.2894 91.7579 57.2496 90.9106 56.9805C89.7833 56.6221 89.0819 54.6483 88.3038 49.6418C85.6843 32.7909 74.0351 20.3728 56.6908 15.941C53.6945 15.1748 50.6162 14.3813 49.8501 14.177C49.083 13.9727 45.9937 14.3512 42.9838 15.0188ZM56.2292 18.2066C71.9245 21.1837 84.1775 34.7556 86.6739 51.9293C87.4985 57.5998 87.9481 58.7682 89.2114 58.5229C91.353 58.1069 92.7868 61.2573 92.1009 64.8728C91.1514 69.8748 90.1463 71.1006 86.9603 71.1416C84.3299 71.1754 83.799 71.6688 81.8088 75.9301C78.9184 82.1196 69.9517 90.9815 63.1219 94.3972C58.1501 96.8845 56.9498 97.0989 48.0003 97.0989C39.0509 97.0989 37.8506 96.8845 32.8788 94.3972C26.049 90.9815 17.0823 82.1196 14.1918 75.9301C12.2017 71.6688 11.6708 71.1754 9.04035 71.1416C5.77689 71.0997 4.81099 69.8538 3.82957 64.4223C3.12088 60.4994 4.4726 58.003 6.88964 58.77C8.14286 59.1677 8.54509 58.086 9.33861 52.1774C12.5218 28.4649 32.8122 13.7656 56.2292 18.2066ZM29.826 58.2091C27.7583 62.0718 33.2883 64.5481 35.5895 60.7894C36.3976 59.4696 36.2453 58.8777 34.8288 57.8251C32.4428 56.0538 30.9169 56.1715 29.826 58.2091ZM61.1719 57.8251C59.7581 58.8758 59.604 59.4724 60.4066 60.7894C61.8505 63.159 65.0081 63.3779 66.1783 61.1898C66.9253 59.7943 66.8195 59.0428 65.7196 57.9419C63.9556 56.1788 63.4092 56.1642 61.1719 57.8251ZM32.9454 73.1017C27.3552 79.7445 33.3777 89.1828 44.2489 90.8164C58.4967 92.9571 70.3603 81.7821 63.0553 73.1017L60.7806 70.3983H48.0003H35.2201L32.9454 73.1017ZM43.8357 73.0224C46.5054 73.7639 48.7747 73.732 52.7058 72.8974C57.3137 71.9197 58.2796 71.968 60.2762 73.2759C63.2761 75.2424 64.0048 78.4384 62.2344 81.8633C57.352 91.3043 38.6979 91.3983 33.841 82.0065C31.9694 78.3873 32.1473 76.8413 34.734 74.2555C37.2285 71.76 38.6131 71.5731 43.8357 73.0224ZM45.0032 78.0535C43.6086 79.4481 44.3702 83.8188 46.1762 84.7856C49.1541 86.38 51.8184 84.4007 51.4736 80.849C51.2328 78.3572 50.7996 77.9066 48.4236 77.674C46.9004 77.5245 45.3617 77.6959 45.0032 78.0535Z" fill="#2887D9"/>
</svg>
