<svg viewBox="0 0 101 80" xmlns="http://www.w3.org/2000/svg">
<path fill-rule="evenodd" clip-rule="evenodd" d="M10.7481 1.99066C-2.32896 9.37228 -2.98862 40.4366 9.33188 68.6873C14.2885 80.0532 18.6113 82.5935 24.1522 77.3985C26.3453 75.3423 27.1158 73.1465 27.98 66.4869C29.1508 57.4724 31.515 50.2224 33.2842 50.2224C35.4439 50.2224 37.8577 55.9311 38.9424 63.6079C40.8762 77.2761 43.6633 81.2055 50.1932 79.4639C53.9037 78.473 53.1827 74.8423 49.2624 74.7713C45.3787 74.7015 45.213 74.428 44.1401 66.353C42.3257 52.7088 38.7702 45.6453 33.7146 45.6453C28.6407 45.6453 24.9841 53.2535 23.1729 67.5785C21.7568 78.7785 17.2876 77.1628 11.9996 63.5381C7.05912 50.8082 5.06722 39.2695 5.59129 26.4092C6.1315 13.1575 7.98135 8.52667 13.7601 5.95895C17.2995 4.38674 18.3013 4.39589 23.895 6.04935C31.5624 8.31613 35.4622 8.33787 43.0489 6.15462C46.3041 5.21747 50.2858 4.74718 51.8978 5.10762C55.647 5.94751 59.8923 11.3118 61.344 17.0422C62.6149 22.0621 63.493 23.0324 65.5452 21.6834C68.0073 20.0642 64.2022 8.78184 59.8116 4.6831C54.7366 -0.055279 50.9433 -0.68119 41.5563 1.67255C34.1332 3.53312 33.1884 3.53884 26.552 1.76638C17.5416 -0.639996 15.356 -0.609099 10.7481 1.99066ZM66.6234 33.4097C61.0836 36.4935 55.5125 44.5319 54.5515 50.8277C53.3441 58.7402 55.6858 66.2294 61.2095 72.1201C71.0624 82.6266 83.8973 82.6266 93.7697 72.1201C97.8051 67.8245 98.9878 65.6115 99.981 60.5012C101.435 53.0189 99.8153 45.627 95.3602 39.4171C89.2779 30.937 76.0384 28.1702 66.6234 33.4097ZM85.6622 37.5268C91.413 40.3039 94.9146 45.6453 95.5431 52.5955C96.2243 60.1339 95.2977 63.2463 90.7931 68.5488C83.8694 76.6971 73.1942 77.3608 65.6485 70.1119C60.382 65.052 58.8119 60.8171 59.4016 53.2581C60.5025 39.1379 73.2211 31.5194 85.6622 37.5268ZM75.9814 53.5361C68.2236 61.8332 66.6407 65.0977 70.3716 65.0977C71.1249 65.0977 75.2668 61.2301 79.5778 56.5032C86.1217 49.3275 87.1946 47.6283 86.084 46.2049C85.3522 45.2677 84.6807 44.5011 84.5914 44.5011C84.5021 44.5011 80.6281 48.5666 75.9814 53.5361Z" fill="#2887D9"/>
</svg>
