<svg viewBox="0 0 100 100" xmlns="http://www.w3.org/2000/svg">
<path fill-rule="evenodd" clip-rule="evenodd" d="M42.3381 0.876177C41.3571 2.46027 42.8366 19.4591 44.516 25.9143C45.8129 30.8974 48.989 36.7088 51.274 38.2787C51.8119 38.6486 51.9996 43.4079 51.712 49.3634C50.6775 70.8111 44.5675 75.9282 26.7108 70.3043C14.1245 66.339 7.75914 69.8609 2.12954 83.9001C-0.457168 90.3513 -0.523778 90.8965 1.05166 92.6348C3.20439 95.0099 8.94198 96.9104 11.5045 96.0982C12.5955 95.7526 13.7561 94.624 14.0851 93.5891C15.0338 90.6043 18.6399 86.504 20.3152 86.504C21.1579 86.504 24.2321 88.5385 27.1468 91.0245C35.3773 98.0451 40.6607 99.997 51.4375 100C77.2874 100.006 95.1188 83.5877 99.4051 55.8348C102.263 37.3285 94.6203 21.547 80.8188 17.4537C74.3969 15.5502 71.8193 15.6147 65.3581 17.8447C59.0169 20.0314 59.0704 20.101 58.1369 8.40768L57.493 0.346131L50.2617 0.0518839C45.7463 -0.131516 42.77 0.177846 42.3381 0.876177ZM54.334 6.14037C54.6681 7.3879 54.9688 10.2215 55.0011 12.4385C55.0344 14.6554 55.6481 17.8296 56.3656 19.4923C57.4809 22.074 57.4223 23.0303 55.967 26.0423C55.0304 27.9821 53.8163 30.6868 53.2693 32.0532L52.2731 34.5382L50.5705 31.9434C48.3482 28.5575 45.926 16.9942 45.9038 9.6673L45.8866 3.87306H49.8055C53.0169 3.87306 53.8355 4.28218 54.334 6.14037ZM82.9109 22.1022C92.6018 26.786 96.994 36.6574 96.0504 51.6317C94.3659 78.3588 78.6025 94.9938 53.676 96.3491C42.77 96.9417 38.1245 95.4069 29.7467 88.4458C21.6646 81.7305 19.5613 81.3486 15.1115 85.7915C13.1647 87.7354 11.5721 90.051 11.5721 90.9378C11.5721 93.0257 6.24829 93.1326 4.54064 91.0789C2.8673 89.0655 9.38403 75.382 12.9144 73.4956C15.823 71.9418 21.4133 72.3761 30.9245 74.8953C39.6676 77.211 44.2122 76.4048 48.5985 71.7624C52.9624 67.1411 54.9073 60.1749 55.5936 46.7C56.4343 30.2061 59.0008 23.9433 66.0726 21.1278C70.4406 19.3885 78.23 19.839 82.9109 22.1022ZM64.9493 47.7077C61.647 49.4994 59.5599 54.3212 60.4884 58.0154C61.2585 61.0798 73.0041 73.4039 75.1548 73.4039C77.3056 73.4039 89.0512 61.0798 89.8213 58.0154C90.7942 54.1449 88.6011 49.439 84.9456 47.5515C82.4003 46.2375 81.286 46.1811 78.1685 47.2089C75.394 48.1229 73.8983 48.1501 72.339 47.3168C69.6383 45.8737 68.187 45.9503 64.9493 47.7077ZM72.9113 51.796C74.9419 53.2158 75.3678 53.2158 77.3984 51.796C82.0622 48.534 86.2566 50.4074 86.2566 55.7532C86.2566 58.1847 85.0495 60.052 80.7057 64.3347L75.1548 69.8085L69.604 64.3347C65.2602 60.052 64.0531 58.1847 64.0531 55.7532C64.0531 50.4074 68.2475 48.534 72.9113 51.796Z" fill="#2887D9"/>
</svg>
