<svg viewBox="0 0 87 90" xmlns="http://www.w3.org/2000/svg">
<path fill-rule="evenodd" clip-rule="evenodd" d="M63.2875 3.219C60.9469 7.096 60.8023 9.518 62.8637 10.317C64.0548 10.779 64.1607 11.345 63.3439 12.887C62.7677 13.975 61.7053 14.636 60.9845 14.356C58.9993 13.587 57.9815 15.351 52.5083 29.035C47.9538 40.425 47.5786 41.942 48.5914 44.876C49.435 47.32 50.8102 48.597 54.1637 50.049C58.4855 51.92 58.7053 51.923 61.7083 50.154C63.8993 48.864 65.3429 46.817 66.6578 43.136C67.6795 40.278 69.038 37.939 69.6776 37.939C71.3637 37.939 73.2172 40.073 73.2172 42.015C73.2172 45.465 68.3221 54.526 65.0835 57.071L61.733 59.704L49.4281 54.849C38.3281 50.47 34.1696 49.804 35.935 52.688C36.2449 53.195 42.0429 55.75 48.8182 58.365C60.6211 62.919 61.1578 63.251 61.6162 66.279C61.8785 68.017 61.6459 70.002 61.0984 70.689C59.5221 72.669 52.9934 72.153 45.3092 69.441C41.4152 68.067 38.0924 67.082 37.9241 67.251C37.7568 67.421 38.2597 68.483 39.0419 69.611C41.1162 72.603 53.3459 76.362 58.0904 75.466C60.1479 75.078 62.3558 74.322 62.9974 73.787C64.4211 72.599 70.6092 75.537 69.7261 76.982C69.4013 77.512 63.4211 77.939 56.3271 77.939C49.2795 77.939 43.5211 78.277 43.529 78.689C43.5875 81.55 45.637 81.901 63.8429 82.166C80.7924 82.413 82.63 82.607 82.93 84.189C83.238 85.807 81.8122 85.939 63.9894 85.939C47.3281 85.939 44.635 86.153 44.1152 87.521C43.7845 88.391 43.5142 89.3 43.5142 89.541C43.5142 89.782 52.9825 89.857 64.5538 89.709L85.5934 89.439L85.8974 85.746C86.3419 80.342 83.6112 77.952 76.93 77.894C71.7746 77.85 71.7508 77.836 74.0686 76.144C81.1231 70.996 83.2776 66.852 81.4459 61.951C80.6548 59.835 81.0092 57.947 83.2459 52.377C84.7776 48.561 86.0439 43.822 86.0597 41.846C86.0984 37.05 82.2785 29.983 78.0944 27.11C76.2201 25.823 74.8429 24.101 75.0152 23.262C75.1875 22.427 74.6201 20.952 73.7538 19.986C71.729 17.725 72.7944 14.594 75.3578 15.271C76.7677 15.643 77.7251 14.775 79.2617 11.733C80.3815 9.515 80.9281 7.35 80.4756 6.92C80.0231 6.491 76.4083 4.758 72.4419 3.07L65.231 0L63.2875 3.219ZM72.7033 6.931C76.8073 8.708 78.031 10.939 74.9013 10.939C72.4805 10.939 65.3033 7.388 65.3003 6.189C65.2944 4.422 67.3944 4.633 72.7033 6.931ZM70.2469 15.046C70.2469 16.215 69.5528 16.939 68.432 16.939C65.8696 16.939 65.2122 15.967 66.336 13.845C67.532 11.589 70.2469 12.423 70.2469 15.046ZM67.029 20.438C69.3439 21.383 71.237 22.589 71.237 23.117C71.237 24.333 65.2459 39.172 64.332 40.22C63.9578 40.649 61.1746 40.043 58.1469 38.873L52.6419 36.745L55.1083 30.592C56.4647 27.208 58.1954 22.927 58.9548 21.08C59.7637 19.112 60.8498 17.928 61.5786 18.22C62.2617 18.495 64.7142 19.493 67.029 20.438ZM77.6588 31.107C80.7102 33.531 83.1182 38.544 83.1182 42.471C83.1182 44.537 79.832 54.078 78.5201 55.824C78.3617 56.035 76.9043 55.653 75.2825 54.975L72.333 53.741L74.2607 48.803C76.9122 42.008 76.7182 39.242 73.3687 36.082C71.0122 33.859 70.7122 33.054 71.5389 31.18C72.7795 28.373 74.1964 28.356 77.6588 31.107ZM8.86073 41.939C8.86073 43.272 9.52113 43.939 10.8409 43.939C12.5627 43.939 12.8211 44.606 12.8211 49.053C12.8211 53.097 11.5786 57.064 6.88054 68.02C3.61321 75.639 0.939941 82.987 0.939941 84.349C0.939941 89.136 3.81519 89.939 20.9627 89.939C35.2637 89.939 36.7508 89.77 38.5637 87.939C39.6528 86.839 40.5439 85.258 40.5439 84.426C40.5439 83.593 37.4251 76.624 33.6132 68.939C27.5429 56.701 26.6825 54.281 26.6825 49.452C26.6825 44.606 26.9221 43.939 28.6627 43.939C29.9825 43.939 30.6429 43.272 30.6429 41.939C30.6429 40.06 29.9825 39.939 19.7518 39.939C9.52113 39.939 8.86073 40.06 8.86073 41.939ZM61.8677 43.939C62.1201 43.939 62.3261 44.565 62.3261 45.331C62.3261 49.047 52.5677 47.362 51.0568 43.386C49.9191 40.392 51.4756 39.984 56.4617 41.969C59.1825 43.053 61.6152 43.939 61.8677 43.939ZM24.9172 51.189C25.1211 55.176 25.6498 59.227 26.0914 60.189C26.8162 61.768 26.2033 61.939 19.8231 61.939C13.138 61.939 12.8073 61.833 13.7766 60.005C14.3399 58.941 14.8013 54.891 14.8013 51.005V43.939H19.6736H24.5459L24.9172 51.189ZM77.5776 59.934C80.0459 62.38 79.8845 67.649 77.2617 70.299C72.5993 75.007 63.9053 71.469 64.0894 64.938C64.2914 57.745 72.3528 54.755 77.5776 59.934ZM33.5489 74.807C35.9162 79.684 37.5409 84.184 37.1597 84.807C36.6894 85.575 31.2409 85.939 20.1885 85.939C1.13202 85.939 2.00034 86.744 7.5241 74.189L11.1538 65.939H20.1993H29.2459L33.5489 74.807ZM14.8013 71.939C14.8013 73.039 15.2469 73.939 15.7914 73.939C16.336 73.939 16.7815 73.039 16.7815 71.939C16.7815 70.839 16.336 69.939 15.7914 69.939C15.2469 69.939 14.8013 70.839 14.8013 71.939ZM21.132 75.356C20.3122 77.513 21.4518 80.2 22.9706 79.689C23.6508 79.46 24.2073 78.222 24.2073 76.939C24.2073 74.198 22.0023 73.063 21.132 75.356Z" fill="#2887D9"/>
</svg>
