<svg viewBox="0 0 91 100" xmlns="http://www.w3.org/2000/svg">
<path fill-rule="evenodd" clip-rule="evenodd" d="M36.4208 0.538001C31.1783 1.6741 27.9099 3.68637 27.3963 6.09406C27.1527 7.23517 26.2625 14.5837 25.4163 22.425C23.6809 38.5201 24.1201 41.9294 28.7786 48.5272C36.6105 59.6192 54.3895 59.6192 62.2214 48.5272C66.8799 41.9294 67.3191 38.5201 65.5837 22.425C63.5714 3.77067 63.6859 4.16208 59.6907 2.21706C55.761 0.304157 42.0624 -0.684411 36.4208 0.538001ZM56.3998 4.67895C60.3373 5.801 60.4586 6.12617 61.702 18.9575L62.3584 25.7319H45.5H28.6416L29.298 18.9575C30.513 6.42124 30.741 5.74881 34.114 4.74619C38.347 3.48765 52.0739 3.4465 56.3998 4.67895ZM43.5435 10.6776C43.5435 13.3543 43.2177 13.6885 40.6087 13.6885C38.3264 13.6885 37.6739 14.1341 37.6739 15.6957C37.6739 17.2573 38.3264 17.703 40.6087 17.703C43.2177 17.703 43.5435 18.0372 43.5435 20.7138C43.5435 23.0553 43.9778 23.7247 45.5 23.7247C47.0222 23.7247 47.4565 23.0553 47.4565 20.7138C47.4565 18.0372 47.7823 17.703 50.3913 17.703C52.6736 17.703 53.3261 17.2573 53.3261 15.6957C53.3261 14.1341 52.6736 13.6885 50.3913 13.6885C47.7823 13.6885 47.4565 13.3543 47.4565 10.6776C47.4565 8.33615 47.0222 7.66673 45.5 7.66673C43.9778 7.66673 43.5435 8.33615 43.5435 10.6776ZM61.8859 30.0676C63.7847 31.3111 63.3425 39.3912 61.1326 43.8363C54.8209 56.5301 36.1791 56.5301 29.8674 43.8363C27.7847 39.6472 27.2153 31.845 28.8696 30.1479C30.0327 28.9546 60.0751 28.8813 61.8859 30.0676ZM28.6455 61.8433C19.4293 64.2459 12.5052 67.7416 7.16293 72.6864C1.75022 77.6975 0.5 81.2162 0.5 91.4371V100H45.5H90.5V91.4371C90.5 81.2202 89.2488 77.6965 83.8459 72.6944C79.117 68.3176 74.7255 65.8949 66.0366 62.871C56.7617 59.6433 38.9593 59.1536 28.6455 61.8433ZM56.9594 64.269C57.3947 64.6795 46.0811 91.971 45.4755 91.971C45.1273 91.971 42.4586 86.0185 39.5463 78.7443C36.633 71.469 34.1121 65.1733 33.9438 64.7538C33.4899 63.6247 41.0607 63.0587 49.413 63.5976C53.4484 63.8575 56.8439 64.1596 56.9594 64.269ZM36.0852 79.1808C39.246 87.0432 42.0448 94.0415 42.304 94.731C42.6709 95.7085 38.5377 95.9855 23.5938 95.9855H4.41304V88.4613C4.41304 81.1991 4.53826 80.7947 8.01989 76.8414C12.2665 72.018 23.8618 65.6992 29.8478 64.9455C30.1168 64.9124 32.9235 71.3175 36.0852 79.1808ZM72.1733 69.1527C76.324 71.0696 80.2449 73.8275 82.6896 76.5484C86.5136 80.8047 86.587 81.0275 86.587 88.4363V95.9855H67.4062C52.4623 95.9855 48.3291 95.7085 48.696 94.731C48.9552 94.0415 51.754 87.0603 54.9148 79.219C61.4965 62.8931 60.2277 63.6327 72.1733 69.1527Z" fill="#2887D9"/>
</svg>
