<svg width="73" height="72" viewBox="0 0 73 72" fill="none" xmlns="http://www.w3.org/2000/svg">
<path fill-rule="evenodd" clip-rule="evenodd" d="M2.14095 1.09503C1.90446 1.52007 1.46434 5.34731 1.16216 9.59868C0.466664 19.3985 1.77801 30.0575 4.92211 40.1599C6.26055 44.4597 7.72462 50.8747 8.17542 54.4158C9.74788 66.7586 11.8179 68.7285 24.4272 69.8839C29.2587 70.3263 34.6897 70.9552 36.497 71.2824C38.3035 71.6096 42.5528 71.4414 45.94 70.9085C53.8417 69.6663 71.6282 64.0795 72.0379 62.7111C72.6776 60.574 69.8906 60.7696 62.2156 63.3994C47.0904 68.5822 46.2397 68.648 22.762 66.4414C13.438 65.5648 12.5849 64.6636 11.0436 54.0676C10.4114 49.7148 8.67795 42.3418 7.19253 37.6828C4.62158 29.6188 4.48527 28.5338 4.35142 15.0713C4.22497 2.30435 3.61405 -1.55854 2.14095 1.09503ZM28.4466 1.05572C28.2274 1.45974 28.7759 4.87473 29.6652 8.6453C31.0242 14.4022 31.1941 17.1124 30.7285 25.5557C30.4239 31.0859 30.1185 37.4616 30.0511 39.7239L29.9271 43.8372L37.3173 44.351C42.7597 44.7294 46.0442 45.5082 49.7796 47.3052C55.5808 50.0968 70.1132 52.4844 71.5518 50.8829C73.2195 49.0265 71.3432 48.2175 64.1682 47.7001C59.0361 47.3299 55.332 46.4661 51.6181 44.7742C48.7203 43.4533 43.3017 41.9277 39.5754 41.3839C31.8617 40.2568 32.3027 41.1042 33.683 30.0557C34.6289 22.4862 33.7339 11.0082 31.6852 4.41952C30.6366 1.04841 29.2398 -0.40223 28.4466 1.05572Z" fill="#2887D9"/>
</svg>
