<svg viewBox="0 0 100 100" xmlns="http://www.w3.org/2000/svg">
<path fill-rule="evenodd" clip-rule="evenodd" d="M1.63112 1.11225C1.29873 1.70967 0.680105 7.0891 0.255378 13.0647C-0.722186 26.8389 1.12099 41.8209 5.54023 56.0204C7.42149 62.0641 9.47934 71.0808 10.113 76.0581C12.3232 93.4066 15.2328 96.1753 32.9559 97.7993C39.7469 98.4212 47.3804 99.3051 49.9207 99.7651C52.4598 100.225 58.4326 99.9886 63.1934 99.2396C74.2998 97.4935 99.2998 89.6409 99.8757 87.7176C100.775 84.7137 96.8577 84.9887 86.0698 88.685C64.8104 95.9698 63.6147 96.0623 30.6153 92.9608C17.5099 91.7287 16.3107 90.4619 14.1444 75.5686C13.2557 69.4504 10.8193 59.0872 8.73145 52.5386C5.11781 41.2042 4.92622 39.6792 4.73809 20.7567C4.56035 2.81203 3.70167 -2.61751 1.63112 1.11225ZM38.6054 1.057C38.2973 1.62488 39.0683 6.42486 40.3182 11.7246C42.2283 19.8163 42.4672 23.6257 41.8128 35.4933C41.3846 43.2663 40.9553 52.2277 40.8606 55.4076L40.6864 61.1892L51.0737 61.9112C58.7234 62.4431 63.34 63.5378 68.5902 66.0637C76.7443 69.9874 97.1704 73.3433 99.1925 71.0923C101.537 68.4829 98.8993 67.3459 88.8144 66.6187C81.601 66.0984 76.3946 64.8842 71.1744 62.5061C67.1014 60.6495 59.4851 58.5052 54.2476 57.7408C43.4055 56.1566 44.0253 57.3476 45.9654 41.8183C47.295 31.179 46.037 15.0458 43.1574 5.78504C41.6836 1.04672 39.7203 -0.992245 38.6054 1.057Z" fill="#2887D9"/>
</svg>
