<svg viewBox="0 0 65 100" xmlns="http://www.w3.org/2000/svg">
<path fill-rule="evenodd" clip-rule="evenodd" d="M25.2952 2.08079C21.9499 3.91 20.0291 5.95653 18.3144 9.51884C16.0193 14.2868 15.8839 17.1982 17.6294 24.2617C18.058 25.997 17.1412 27.0443 13.1693 29.3573C6.50544 33.2374 2.24642 40.1644 0.659923 49.7036C-0.391244 56.0222 -0.263053 59.1652 1.60033 72.673C2.7879 81.2806 3.75907 90.7117 3.75907 93.6308C3.75907 99.0682 5.11892 101.333 7.10947 99.2134C7.91964 98.3507 7.68172 93.7061 6.25111 82.436C5.16199 73.8655 4.27184 62.1837 4.27184 56.4776C4.27184 47.1023 4.54565 45.6061 7.11973 40.9452C8.9462 37.6362 11.6618 34.7292 14.6933 32.8366C19.1728 30.042 19.4907 29.9896 20.7644 31.8439C21.8915 33.4853 21.8299 34.2519 20.386 36.5999C18.1093 40.2987 18.1595 50.4112 20.4772 55.0612L22.2206 58.558L17.5699 60.7487C10.2794 64.1832 9.40871 67.4977 11.1172 85.3202C12.2002 96.6263 12.8073 99.6142 14.0195 99.6142C15.7721 99.6142 15.8234 97.8199 14.5569 80.8187C13.8451 71.2609 13.9703 69.2701 15.4327 66.8948C17.9934 62.7319 19.4384 63.3926 18.6487 68.3669C17.3473 76.5738 21.1838 85.2841 27.6929 88.8999C32.4913 91.5657 42.2431 91.3451 47.4138 88.4544C57.0558 83.0639 62.5557 72.2623 64.4786 54.9378C67.7336 25.6202 55.4929 2.97738 34.9013 0.22428C30.8771 -0.314108 29.0158 0.0462737 25.2952 2.08079ZM41.0155 5.80255C50.113 9.10277 57.6834 19.6609 60.3119 32.7143C62.0809 41.4989 60.8851 61.1134 58.1049 68.9064C55.4775 76.2713 49.871 83.444 45.0694 85.5844C37.0836 89.1446 26.7576 86.1687 23.5302 79.3782C21.7304 75.591 21.9109 67.17 23.9046 61.8648C25.4675 57.7029 25.4675 57.1067 23.9046 53.6153C21.6833 48.6563 21.7725 41.441 24.1045 37.3665C25.9618 34.1209 25.9525 34.0291 23.0739 27.5379C19.8178 20.1938 19.4271 15.3035 21.7192 10.5847C24.7711 4.29987 31.9632 2.51762 41.0155 5.80255Z" fill="#2887D9"/>
</svg>
