<svg width="47" height="73" viewBox="0 0 47 73" fill="none" xmlns="http://www.w3.org/2000/svg">
<path fill-rule="evenodd" clip-rule="evenodd" d="M18.4281 2.35735C16.0481 3.65875 14.6815 5.11477 13.4616 7.64921C11.8287 11.0414 11.7324 13.1128 12.9742 18.1382C13.2792 19.3727 12.6269 20.1178 9.80107 21.7634C5.05999 24.524 2.02987 29.4522 0.901148 36.239C0.153287 40.7344 0.244489 42.9705 1.57021 52.5807C2.41511 58.7047 3.10606 65.4145 3.10606 67.4913C3.10606 71.3598 4.07354 72.9712 5.48974 71.4632C6.06614 70.8494 5.89686 67.545 4.87904 59.5267C4.10418 53.4292 3.47087 45.118 3.47087 41.0584C3.47087 34.3882 3.66568 33.3238 5.49703 30.0078C6.79649 27.6536 8.72852 25.5853 10.8853 24.2388C14.0723 22.2506 14.2985 22.2133 15.2046 23.5326C16.0065 24.7003 15.9627 25.2458 14.9354 26.9162C13.3157 29.5478 13.3514 36.7424 15.0003 40.0507L16.2407 42.5385L12.9319 44.0971C7.74499 46.5407 7.12555 48.8987 8.34109 61.5787C9.11157 69.6225 9.54351 71.7483 10.4059 71.7483C11.6528 71.7483 11.6893 70.4718 10.7882 58.3761C10.2819 51.5761 10.3709 50.1597 11.4113 48.4698C13.2332 45.5081 14.2612 45.9781 13.6994 49.5172C12.7735 55.356 15.5031 61.5531 20.134 64.1256C23.5479 66.0221 30.4858 65.8652 34.1646 63.8086C41.0245 59.9735 44.9374 52.2886 46.3055 39.9629C48.6213 19.1047 39.9125 2.99523 25.2625 1.03652C22.3994 0.653478 21.0752 0.909875 18.4281 2.35735ZM29.6125 5.00522C36.0849 7.35319 41.471 14.8648 43.341 24.1518C44.5996 30.4017 43.7489 44.3566 41.7709 49.901C39.9016 55.1408 35.9128 60.2439 32.4967 61.7667C26.8151 64.2996 19.4685 62.1824 17.1724 57.3513C15.8919 54.6568 16.0204 48.6656 17.4387 44.8912C18.5507 41.9302 18.5507 41.506 17.4387 39.022C15.8584 35.4939 15.9219 30.3605 17.581 27.4617C18.9024 25.1525 18.8958 25.0873 16.8477 20.469C14.5312 15.244 14.2532 11.7648 15.8839 8.40753C18.0553 3.93613 23.1721 2.66813 29.6125 5.00522Z" fill="#2887D9"/>
</svg>
