 <svg viewBox="0 0 97 100" xmlns="http://www.w3.org/2000/svg"> 
<path fill-rule="evenodd" clip-rule="evenodd" d="M73.2432 1.063C72.8822 1.648 73.3932 3.018 74.3802 4.109C76.1312 6.044 75.9902 6.276 68.4932 13.773L60.8122 21.454L55.8032 16.521C51.9082 12.685 50.5282 11.854 49.5952 12.787C48.6622 13.72 49.0422 14.662 51.3022 17.021L54.2092 20.056L32.5222 41.778L10.8342 63.5L12.7772 71L14.7202 78.5L7.75123 85.524C1.82523 91.496 0.782227 93.064 0.782227 96.003V99.458L9.53223 90.759L18.2822 82.06L25.7822 84.004L33.2822 85.948L55.0042 64.26L76.7262 42.573L79.7612 45.48C82.1202 47.74 83.0622 48.12 83.9952 47.187C84.9282 46.254 84.0972 44.874 80.2612 40.979L75.3282 35.97L83.0092 28.289C90.6202 20.678 90.7102 20.625 92.7602 22.48C94.3632 23.93 95.0982 24.084 96.0222 23.16C96.9462 22.236 94.7452 19.49 86.2662 10.984C80.2432 4.943 74.9972 0 74.6082 0C74.2192 0 73.6042 0.478 73.2432 1.063ZM83.7992 13.517L88.2322 18.034L80.5092 25.756L72.7872 33.479L68.0542 28.745L63.3202 24.012L70.7762 16.506C74.8772 12.378 78.4872 9 78.7992 9C79.1112 9 81.3602 11.033 83.7992 13.517ZM65.7922 31.51L74.2572 40.019L53.1792 61.097L32.1012 82.175L25.1992 80.33L18.2972 78.485L16.4592 71.609C14.7852 65.346 14.7622 64.592 16.1982 63.155C17.6352 61.718 18.1782 61.972 22.2752 65.993C25.7912 69.444 27.0382 70.144 27.9822 69.2C28.9262 68.256 28.2252 67.008 24.7682 63.486L20.3472 58.981L23.0372 56.29L25.7272 53.6L28.2682 55.987C30.2122 57.813 31.0842 58.098 31.9822 57.2C32.8802 56.302 32.5952 55.43 30.7692 53.486L28.3822 50.945L31.0722 48.255L33.7632 45.565L38.2682 49.986C41.7902 53.443 43.0382 54.144 43.9822 53.2C44.9262 52.256 44.2252 51.008 40.7682 47.486L36.3472 42.981L39.0372 40.29L41.7272 37.6L44.2682 39.987C46.2122 41.813 47.0842 42.098 47.9822 41.2C48.8802 40.302 48.5952 39.43 46.7692 37.486L44.3822 34.945L47.0722 32.255L49.7632 29.565L54.2682 33.986C57.7902 37.443 59.0382 38.144 59.9822 37.2C60.9262 36.256 60.2332 35.016 56.8062 31.524C52.5062 27.143 52.4572 27.017 54.2562 25.028C55.2662 23.913 56.3702 23 56.7092 23C57.0482 23 61.1362 26.829 65.7922 31.51Z" fill="#2887D9"/>
</svg>
