<svg viewBox="0 0 28 32" fill="none" xmlns="http://www.w3.org/2000/svg"><path d="M25.632 20.087c0 .384-.093.778-.291 1.162a4.39 4.39 0 0 1-.794 1.088 5.275 5.275 0 0 1-1.913 1.259c-.7.267-1.458.405-2.275.405-1.19 0-2.462-.256-3.803-.778a21.045 21.045 0 0 1-4.014-2.112 32.945 32.945 0 0 1-3.826-2.987 31.226 31.226 0 0 1-3.255-3.488c-.957-1.216-1.727-2.432-2.287-3.637-.56-1.216-.84-2.379-.84-3.488 0-.726.14-1.419.42-2.059.28-.65.723-1.248 1.342-1.781.746-.672 1.563-1.003 2.426-1.003.327 0 .654.064.945.192.304.128.572.32.782.597l2.707 3.488c.21.267.361.512.466.747.105.224.164.448.164.65 0 .257-.082.513-.245.758a3.698 3.698 0 0 1-.654.757l-.886.843a.546.546 0 0 0-.187.427c0 .085.012.16.035.245.035.085.07.15.093.213.21.352.572.811 1.085 1.366.525.554 1.085 1.12 1.692 1.685.63.565 1.237 1.088 1.855 1.568.607.47 1.108.79 1.505.981.058.022.128.054.21.086a.874.874 0 0 0 .292.042c.198 0 .35-.064.478-.181l.887-.8c.291-.267.571-.47.84-.597.268-.15.536-.224.828-.224.222 0 .455.042.712.138.256.096.525.235.816.416l3.862 2.507c.303.192.513.416.642.683.116.266.186.533.186.832Z" stroke="#2887D9" stroke-width="1.5" stroke-miterlimit="10"/><path d="M21.583 12.001c0-.8-.548-2.026-1.365-3.026-.746-.92-1.738-1.64-2.718-1.64M25.667 12c0-5.16-3.652-9.333-8.167-9.333" stroke="#2887D9" stroke-width="1.5" stroke-linecap="round" stroke-linejoin="round"/></svg>