<svg viewBox="0 0 28 28" fill="none" xmlns="http://www.w3.org/2000/svg"><path d="M9.987 4.667v15.167m8.365-12.11v15.61M2.672 9.077v11.352c0 2.216 1.575 3.126 3.488 2.03l2.742-1.564c.595-.338 1.587-.373 2.205-.058l6.125 3.068c.618.304 1.61.28 2.205-.058l5.051-2.893c.642-.374 1.179-1.284 1.179-2.03V7.572c0-2.217-1.575-3.127-3.489-2.03l-2.741 1.563c-.595.339-1.587.374-2.205.059l-6.125-3.057c-.618-.303-1.61-.28-2.205.058L3.85 7.06c-.653.373-1.178 1.283-1.178 2.018Z" stroke="#2887D9" stroke-linecap="round" stroke-linejoin="round"/></svg>