<svg aria-hidden="true" xmlns="http://www.w3.org/2000/svg"><defs><symbol id="icon-google" viewBox="0 0 32 32"><path stroke="#2887d9" stroke-linejoin="round" stroke-linecap="round" stroke-miterlimit="10" stroke-width="1.714" d="M28.8 13.601H16.267v4.933H23.6c-.133 1.2-.933 3.067-2.667 4.267-1.067.8-2.667 1.333-4.667 1.333-3.467 0-6.533-2.267-7.6-5.6-.267-.8-.4-1.733-.4-2.667s.133-1.867.4-2.667c.133-.267.133-.533.267-.667 1.2-2.8 4-4.8 7.333-4.8 2.533 0 4.133 1.067 5.2 2L25.199 6c-2.267-2-5.333-3.333-8.933-3.333-5.2 0-9.733 2.933-11.867 7.333-.933 1.867-1.467 3.867-1.467 6s.533 4.133 1.467 6c2.133 4.4 6.667 7.333 11.867 7.333 3.6 0 6.667-1.2 8.8-3.2 2.533-2.267 4-5.733 4-9.867 0-1.067-.133-1.867-.267-2.667v0z"/></symbol><symbol id="icon-facebook" viewBox="0 0 32 32"><path stroke="#2887d9" stroke-linecap="round" stroke-miterlimit="10" stroke-width="1.714" d="M18.667 12.4v3.867h3.467c.267 0 .4.267.4.533l-.533 2.533c0 .133-.267.267-.4.267h-2.933v9.733h-4v-9.6h-2.267c-.267 0-.4-.133-.4-.4V16.8c0-.267.133-.4.4-.4h2.267V12c0-2.267 1.733-4 4-4h3.6c.267 0 .4.133.4.4v3.2c0 .267-.133.4-.4.4h-3.2c-.267 0-.4.133-.4.4v0z"/><path stroke="#2887d9" stroke-linejoin="round" stroke-linecap="round" stroke-width="1.714" d="M20 29.334h-8c-6.667 0-9.333-2.667-9.333-9.333v-8c0-6.667 2.667-9.333 9.333-9.333h8c6.667 0 9.333 2.667 9.333 9.333v8c0 6.667-2.667 9.333-9.333 9.333z"/></symbol><symbol id="icon-instagram" viewBox="0 0 32 32"><path stroke="#2887d9" stroke-linejoin="round" stroke-linecap="round" stroke-width="1.714" d="M12 29.334h8c6.667 0 9.333-2.667 9.333-9.333v-8c0-6.667-2.667-9.333-9.333-9.333h-8c-6.667 0-9.333 2.667-9.333 9.333v8c0 6.667 2.667 9.333 9.333 9.333z"/><path stroke="#2887d9" stroke-linejoin="round" stroke-linecap="round" stroke-width="1.714" d="M16 20.666a4.676 4.676 0 0 0 3.3-1.367 4.657 4.657 0 0 0 1.012-5.086A4.68 4.68 0 0 0 16 11.332a4.667 4.667 0 0 0 0 9.334z"/><path stroke="#2887d9" stroke-linejoin="round" stroke-linecap="round" stroke-width="2.286" d="M23.515 9.333h.016"/></symbol><symbol id="icon-close" viewBox="0 0 32 32"><path stroke="#72b7f2" stroke-linecap="round" stroke-width="2" d="m12.227 19.773 7.547-7.547m-.001 7.547-7.547-7.547M12 29.333h8c6.667 0 9.333-2.667 9.333-9.333v-8c0-6.667-2.667-9.333-9.333-9.333h-8c-6.667 0-9.333 2.667-9.333 9.333v8c0 6.667 2.667 9.333 9.333 9.333z"/></symbol><symbol id="icon-search" viewBox="0 0 32 32"><path stroke="#72b7f2" stroke-linecap="round" stroke-width="2" d="m29.333 29.333-2.667-2.667M15.333 28a12.674 12.674 0 0 0 8.956-3.71 12.655 12.655 0 0 0 2.746-13.803 12.672 12.672 0 0 0-11.702-7.819 12.663 12.663 0 0 0-8.957 21.624 12.663 12.663 0 0 0 8.957 3.71v0z"/></symbol><symbol id="icon-burger_menu" viewBox="0 0 32 32"><path stroke="#72b7f2" stroke-linecap="round" stroke-width="2.667" d="M4 9.333h24.381M4 16.191h24.381M4 23.048h24.381"/></symbol></defs></svg>