<svg viewBox="0 0 28 32" fill="none" xmlns="http://www.w3.org/2000/svg">
<path d="M25.6323 20.0866C25.6323 20.4706 25.539 20.8653 25.3406 21.2493C25.1423 21.6333 24.8857 21.996 24.5473 22.3373C23.9757 22.9133 23.3456 23.3293 22.634 23.596C21.934 23.8626 21.1757 24.0013 20.359 24.0013C19.169 24.0013 17.8973 23.7453 16.5557 23.2226C15.214 22.7 13.8723 21.996 12.5423 21.1106C11.1868 20.2041 9.90762 19.2057 8.71565 18.124C7.53588 17.0381 6.44777 15.8721 5.46065 14.636C4.50398 13.42 3.73398 12.204 3.17398 10.9986C2.61398 9.78264 2.33398 8.61997 2.33398 7.51064C2.33398 6.7853 2.47398 6.09197 2.75398 5.45197C3.03398 4.8013 3.47732 4.20397 4.09565 3.67064C4.84232 2.99864 5.65898 2.66797 6.52232 2.66797C6.84898 2.66797 7.17565 2.73197 7.46732 2.85997C7.77065 2.98797 8.03898 3.17997 8.24898 3.4573L10.9557 6.9453C11.1657 7.21197 11.3173 7.4573 11.4223 7.69197C11.5273 7.91597 11.5857 8.13997 11.5857 8.34264C11.5857 8.59864 11.504 8.85463 11.3407 9.09997C11.189 9.3453 10.9673 9.6013 10.6873 9.8573L9.80065 10.7C9.67232 10.8173 9.61398 10.956 9.61398 11.1266C9.61398 11.212 9.62565 11.2866 9.64898 11.372C9.68398 11.4573 9.71898 11.5213 9.74232 11.5853C9.95232 11.9373 10.314 12.396 10.8273 12.9506C11.3523 13.5053 11.9123 14.0706 12.519 14.636C13.149 15.2013 13.7557 15.724 14.374 16.204C14.9807 16.6733 15.4823 16.9933 15.879 17.1853C15.9373 17.2066 16.0073 17.2386 16.089 17.2706C16.1823 17.3026 16.2757 17.3133 16.3807 17.3133C16.579 17.3133 16.7307 17.2493 16.859 17.132L17.7457 16.332C18.0373 16.0653 18.3173 15.8626 18.5857 15.7346C18.854 15.5853 19.1223 15.5106 19.414 15.5106C19.6356 15.5106 19.869 15.5533 20.1257 15.6493C20.3823 15.7453 20.6507 15.884 20.9423 16.0653L24.804 18.572C25.1073 18.764 25.3173 18.988 25.4456 19.2546C25.5623 19.5213 25.6323 19.788 25.6323 20.0866V20.0866Z" stroke="#2887D9" stroke-width="1.5" stroke-miterlimit="10"/>
<path d="M21.5833 12.0013C21.5833 11.2013 21.035 9.97464 20.2183 8.97464C19.4717 8.05464 18.48 7.33464 17.5 7.33464M25.6667 12.0013C25.6667 6.8413 22.015 2.66797 17.5 2.66797" stroke="#2887D9" stroke-width="1.5" stroke-linecap="round" stroke-linejoin="round"/>
</svg>
