<svg viewBox="0 0 28 28" fill="none" xmlns="http://www.w3.org/2000/svg">
<path d="M9.98688 4.66696V19.8336M18.3519 7.72363V23.3336M2.67188 9.07696V20.4286C2.67188 22.6453 4.24688 23.5553 6.16021 22.4586L8.90188 20.8953C9.49688 20.557 10.4885 20.522 11.1069 20.837L17.2319 23.9053C17.8502 24.2086 18.8419 24.1853 19.4369 23.847L24.4885 20.9536C25.1302 20.5803 25.6669 19.6703 25.6669 18.9236V7.57196C25.6669 5.3553 24.0919 4.4453 22.1785 5.54196L19.4369 7.1053C18.8419 7.44363 17.8502 7.47863 17.2319 7.16363L11.1069 4.10696C10.4885 3.80363 9.49688 3.82696 8.90188 4.1653L3.85021 7.05863C3.19688 7.43196 2.67188 8.34196 2.67188 9.07696Z" stroke="#2887D9" stroke-linecap="round" stroke-linejoin="round"/>
</svg>
