<svg aria-hidden="true" version="1.1" xmlns="http://www.w3.org/2000/svg" xmlns:xlink="http://www.w3.org/1999/xlink">
<defs>
<symbol id="icon-google" viewBox="0 0 32 32">
<path  stroke="#2887d9"  stroke-linejoin="round" stroke-linecap="round" stroke-miterlimit="10" stroke-width="1.7143" d="M28.8 13.601h-12.533v4.933h7.333c-0.133 1.2-0.933 3.067-2.667 4.267-1.067 0.8-2.667 1.333-4.667 1.333-3.467 0-6.533-2.267-7.6-5.6-0.267-0.8-0.4-1.733-0.4-2.667s0.133-1.867 0.4-2.667c0.133-0.267 0.133-0.533 0.267-0.667 1.2-2.8 4-4.8 7.333-4.8 2.533 0 4.133 1.067 5.2 2l3.733-3.733c-2.267-2-5.333-3.333-8.933-3.333-5.2 0-9.733 2.933-11.867 7.333-0.933 1.867-1.467 3.867-1.467 6s0.533 4.133 1.467 6c2.133 4.4 6.667 7.333 11.867 7.333 3.6 0 6.667-1.2 8.8-3.2 2.533-2.267 4-5.733 4-9.867 0-1.067-0.133-1.867-0.267-2.667v0z"></path>
</symbol>
<symbol id="icon-facebook" viewBox="0 0 32 32">
<path  stroke="#2887d9"  stroke-linejoin="miter" stroke-linecap="round" stroke-miterlimit="10" stroke-width="1.7143" d="M18.667 12.4v3.867h3.467c0.267 0 0.4 0.267 0.4 0.533l-0.533 2.533c0 0.133-0.267 0.267-0.4 0.267h-2.933v9.733h-4v-9.6h-2.267c-0.267 0-0.4-0.133-0.4-0.4v-2.533c0-0.267 0.133-0.4 0.4-0.4h2.267v-4.4c0-2.267 1.733-4 4-4h3.6c0.267 0 0.4 0.133 0.4 0.4v3.2c0 0.267-0.133 0.4-0.4 0.4h-3.2c-0.267 0-0.4 0.133-0.4 0.4v0z"></path>
<path  stroke="#2887d9"  stroke-linejoin="round" stroke-linecap="round" stroke-miterlimit="4" stroke-width="1.7143" d="M20 29.334h-8c-6.667 0-9.333-2.667-9.333-9.333v-8c0-6.667 2.667-9.333 9.333-9.333h8c6.667 0 9.333 2.667 9.333 9.333v8c0 6.667-2.667 9.333-9.333 9.333z"></path>
</symbol>
<symbol id="icon-instagram" viewBox="0 0 32 32">
<path  stroke="#2887d9"  stroke-linejoin="round" stroke-linecap="round" stroke-miterlimit="4" stroke-width="1.7143" d="M12 29.334h8c6.667 0 9.333-2.667 9.333-9.333v-8c0-6.667-2.667-9.333-9.333-9.333h-8c-6.667 0-9.333 2.667-9.333 9.333v8c0 6.667 2.667 9.333 9.333 9.333z"></path>
<path  stroke="#2887d9"  stroke-linejoin="round" stroke-linecap="round" stroke-miterlimit="4" stroke-width="1.7143" d="M16 20.666c0.613 0 1.22-0.121 1.786-0.355s1.081-0.578 1.514-1.012 0.777-0.948 1.012-1.514c0.235-0.566 0.355-1.173 0.355-1.786s-0.121-1.22-0.355-1.786-0.578-1.081-1.012-1.514c-0.433-0.433-0.948-0.777-1.514-1.012s-1.173-0.355-1.786-0.355c-1.238 0-2.425 0.492-3.3 1.367s-1.367 2.062-1.367 3.3c0 1.238 0.492 2.425 1.367 3.3s2.062 1.367 3.3 1.367z"></path>
<path  stroke="#2887d9"  stroke-linejoin="round" stroke-linecap="round" stroke-miterlimit="4" stroke-width="2.2857" d="M23.515 9.333h0.016"></path>
</symbol>
<symbol id="icon-callcalling" viewBox="0 0 32 32">
<path  stroke="#2887d9"  stroke-linejoin="miter" stroke-linecap="butt" stroke-miterlimit="10" stroke-width="1.5" d="M27.632 20.087c0 0.384-0.093 0.779-0.292 1.163s-0.455 0.747-0.793 1.088c-0.572 0.576-1.202 0.992-1.913 1.259-0.7 0.267-1.458 0.405-2.275 0.405-1.19 0-2.462-0.256-3.803-0.779s-2.683-1.227-4.013-2.112c-1.355-0.907-2.635-1.905-3.827-2.987-1.18-1.086-2.268-2.252-3.255-3.488-0.957-1.216-1.727-2.432-2.287-3.637-0.56-1.216-0.84-2.379-0.84-3.488 0-0.725 0.14-1.419 0.42-2.059 0.28-0.651 0.723-1.248 1.342-1.781 0.747-0.672 1.563-1.003 2.427-1.003 0.327 0 0.653 0.064 0.945 0.192 0.303 0.128 0.572 0.32 0.782 0.597l2.707 3.488c0.21 0.267 0.362 0.512 0.467 0.747 0.105 0.224 0.163 0.448 0.163 0.651 0 0.256-0.082 0.512-0.245 0.757-0.152 0.245-0.373 0.501-0.653 0.757l-0.887 0.843c-0.128 0.117-0.187 0.256-0.187 0.427 0 0.085 0.012 0.16 0.035 0.245 0.035 0.085 0.070 0.149 0.093 0.213 0.21 0.352 0.572 0.811 1.085 1.365 0.525 0.555 1.085 1.12 1.692 1.685 0.63 0.565 1.237 1.088 1.855 1.568 0.607 0.469 1.108 0.789 1.505 0.981 0.058 0.021 0.128 0.053 0.21 0.085 0.093 0.032 0.187 0.043 0.292 0.043 0.198 0 0.35-0.064 0.478-0.181l0.887-0.8c0.292-0.267 0.572-0.469 0.84-0.597 0.268-0.149 0.537-0.224 0.828-0.224 0.222 0 0.455 0.043 0.712 0.139s0.525 0.235 0.817 0.416l3.862 2.507c0.303 0.192 0.513 0.416 0.642 0.683 0.117 0.267 0.187 0.533 0.187 0.832v0z"></path>
<path  stroke="#2887d9"  stroke-linejoin="round" stroke-linecap="round" stroke-miterlimit="4" stroke-width="1.5" d="M23.583 12.001c0-0.8-0.548-2.027-1.365-3.027-0.747-0.92-1.738-1.64-2.718-1.64M27.667 12.001c0-5.16-3.652-9.333-8.167-9.333"></path>
</symbol>
<symbol id="icon-sms" viewBox="0 0 32 32">
<path  stroke="#2887d9"  stroke-linejoin="round" stroke-linecap="round" stroke-miterlimit="10" stroke-width="1.7143" d="M22.666 27.334h-13.333c-4 0-6.667-2-6.667-6.667v-9.333c0-4.667 2.667-6.667 6.667-6.667h13.333c4 0 6.667 2 6.667 6.667v9.333c0 4.667-2.667 6.667-6.667 6.667z"></path>
<path  stroke="#2887d9"  stroke-linejoin="round" stroke-linecap="round" stroke-miterlimit="10" stroke-width="1.7143" d="M22.667 12l-4.173 3.333c-1.373 1.093-3.627 1.093-5 0l-4.16-3.333"></path>
</symbol>
<symbol id="icon-map" viewBox="0 0 32 32">
<path  stroke="#2887d9"  stroke-linejoin="round" stroke-linecap="round" stroke-miterlimit="4" stroke-width="1.1429" d="M11.414 5.334v17.333M20.974 8.827v17.84M3.054 10.374v12.973c0 2.533 1.8 3.573 3.987 2.32l3.133-1.787c0.68-0.387 1.813-0.427 2.52-0.067l7 3.507c0.707 0.347 1.84 0.32 2.52-0.067l5.773-3.307c0.733-0.427 1.347-1.467 1.347-2.32v-12.973c0-2.533-1.8-3.573-3.987-2.32l-3.133 1.787c-0.68 0.387-1.813 0.427-2.52 0.067l-7-3.493c-0.707-0.347-1.84-0.32-2.52 0.067l-5.773 3.307c-0.747 0.427-1.347 1.467-1.347 2.307z"></path>
</symbol>
<symbol id="icon-global" viewBox="0 0 32 32">
<path  stroke="#72b7f2"  stroke-linecap="round" stroke-miterlimit="4" stroke-width="2" d="M16 29.333c7.364 0 13.333-5.969 13.333-13.333s-5.969-13.333-13.333-13.333c-7.364 0-13.333 5.969-13.333 13.333s5.969 13.333 13.333 13.333z"></path>
<path  stroke="#72b7f2"  stroke-linecap="round" stroke-miterlimit="4" stroke-width="2" d="M10.666 4h1.333c-2.6 7.789-2.6 16.211 0 24h-1.333M19.999 4c2.6 7.789 2.6 16.211 0 24"></path>
<path  stroke="#72b7f2"  stroke-linecap="round" stroke-miterlimit="4" stroke-width="2" d="M4 21.333v-1.333c7.789 2.6 16.211 2.6 24 0v1.333M4 11.999c7.789-2.6 16.211-2.6 24 0"></path>
</symbol>
<symbol id="icon-close" viewBox="0 0 32 32">
<path  stroke="#72b7f2"  stroke-linecap="round" stroke-miterlimit="4" stroke-width="2" d="M12.227 19.773l7.547-7.547M19.773 19.773l-7.547-7.547M12 29.333h8c6.667 0 9.333-2.667 9.333-9.333v-8c0-6.667-2.667-9.333-9.333-9.333h-8c-6.667 0-9.333 2.667-9.333 9.333v8c0 6.667 2.667 9.333 9.333 9.333z"></path>
</symbol>
<symbol id="icon-search" viewBox="0 0 32 32">
<path  stroke="#72b7f2"  stroke-linecap="round" stroke-miterlimit="4" stroke-width="2" d="M29.333 29.333l-2.667-2.667M15.333 28c1.663 0 3.311-0.328 4.847-0.964s2.933-1.57 4.109-2.746c1.176-1.176 2.109-2.573 2.746-4.109s0.964-3.184 0.964-4.847-0.328-3.311-0.964-4.847c-0.637-1.537-1.57-2.933-2.746-4.109s-2.573-2.109-4.109-2.746-3.184-0.964-4.847-0.964c-3.359 0-6.581 1.335-8.957 3.71s-3.71 5.597-3.71 8.957c0 3.359 1.335 6.581 3.71 8.957s5.597 3.71 8.957 3.71v0z"></path>
</symbol>
<symbol id="icon-burger_menu" viewBox="0 0 32 32">
<path  stroke="#72b7f2"  stroke-linejoin="miter" stroke-linecap="round" stroke-miterlimit="4" stroke-width="2.6667" d="M4 9.333h24.381M4 16.191h24.381M4 23.048h24.381"></path>
</symbol>
<symbol id="icon-vhd-v-kabnet" viewBox="0 0 32 32">
<path  stroke="#2887d9"  stroke-linejoin="round" stroke-linecap="round" stroke-miterlimit="4" stroke-width="1.1429" d="M27.453 29.333c0-5.16-5.133-9.333-11.453-9.333s-11.453 4.173-11.453 9.333M15.999 16c1.768 0 3.464-0.702 4.714-1.953s1.953-2.946 1.953-4.714-0.702-3.464-1.953-4.714c-1.25-1.25-2.946-1.953-4.714-1.953s-3.464 0.702-4.714 1.953c-1.25 1.25-1.953 2.946-1.953 4.714s0.702 3.464 1.953 4.714c1.25 1.25 2.946 1.953 4.714 1.953v0z"></path>
</symbol>
</defs>
</svg>
