<svg aria-hidden="true" version="1.1" xmlns="http://www.w3.org/2000/svg" xmlns:xlink="http://www.w3.org/1999/xlink">
<defs>
<symbol id="icon-google" viewBox="0 0 32 32">
<path  stroke="#2887d9"  stroke-linejoin="round" stroke-linecap="round" stroke-miterlimit="10" stroke-width="1.7143" d="M28.8 13.601h-12.533v4.933h7.333c-0.133 1.2-0.933 3.067-2.667 4.267-1.067 0.8-2.667 1.333-4.667 1.333-3.467 0-6.533-2.267-7.6-5.6-0.267-0.8-0.4-1.733-0.4-2.667s0.133-1.867 0.4-2.667c0.133-0.267 0.133-0.533 0.267-0.667 1.2-2.8 4-4.8 7.333-4.8 2.533 0 4.133 1.067 5.2 2l3.733-3.733c-2.267-2-5.333-3.333-8.933-3.333-5.2 0-9.733 2.933-11.867 7.333-0.933 1.867-1.467 3.867-1.467 6s0.533 4.133 1.467 6c2.133 4.4 6.667 7.333 11.867 7.333 3.6 0 6.667-1.2 8.8-3.2 2.533-2.267 4-5.733 4-9.867 0-1.067-0.133-1.867-0.267-2.667v0z"></path>
</symbol>
<symbol id="icon-facebook" viewBox="0 0 32 32">
<path  stroke="#2887d9"  stroke-linejoin="miter" stroke-linecap="round" stroke-miterlimit="10" stroke-width="1.7143" d="M18.667 12.4v3.867h3.467c0.267 0 0.4 0.267 0.4 0.533l-0.533 2.533c0 0.133-0.267 0.267-0.4 0.267h-2.933v9.733h-4v-9.6h-2.267c-0.267 0-0.4-0.133-0.4-0.4v-2.533c0-0.267 0.133-0.4 0.4-0.4h2.267v-4.4c0-2.267 1.733-4 4-4h3.6c0.267 0 0.4 0.133 0.4 0.4v3.2c0 0.267-0.133 0.4-0.4 0.4h-3.2c-0.267 0-0.4 0.133-0.4 0.4v0z"></path>
<path  stroke="#2887d9"  stroke-linejoin="round" stroke-linecap="round" stroke-miterlimit="4" stroke-width="1.7143" d="M20 29.334h-8c-6.667 0-9.333-2.667-9.333-9.333v-8c0-6.667 2.667-9.333 9.333-9.333h8c6.667 0 9.333 2.667 9.333 9.333v8c0 6.667-2.667 9.333-9.333 9.333z"></path>
</symbol>
<symbol id="icon-instagram" viewBox="0 0 32 32">
<path  stroke="#2887d9"  stroke-linejoin="round" stroke-linecap="round" stroke-miterlimit="4" stroke-width="1.7143" d="M12 29.334h8c6.667 0 9.333-2.667 9.333-9.333v-8c0-6.667-2.667-9.333-9.333-9.333h-8c-6.667 0-9.333 2.667-9.333 9.333v8c0 6.667 2.667 9.333 9.333 9.333z"></path>
<path  stroke="#2887d9"  stroke-linejoin="round" stroke-linecap="round" stroke-miterlimit="4" stroke-width="1.7143" d="M16 20.666c0.613 0 1.22-0.121 1.786-0.355s1.081-0.578 1.514-1.012 0.777-0.948 1.012-1.514c0.235-0.566 0.355-1.173 0.355-1.786s-0.121-1.22-0.355-1.786-0.578-1.081-1.012-1.514c-0.433-0.433-0.948-0.777-1.514-1.012s-1.173-0.355-1.786-0.355c-1.238 0-2.425 0.492-3.3 1.367s-1.367 2.062-1.367 3.3c0 1.238 0.492 2.425 1.367 3.3s2.062 1.367 3.3 1.367z"></path>
<path  stroke="#2887d9"  stroke-linejoin="round" stroke-linecap="round" stroke-miterlimit="4" stroke-width="2.2857" d="M23.515 9.333h0.016"></path>
</symbol>
<symbol id="icon-close" viewBox="0 0 32 32">
<path  stroke="#72b7f2"  stroke-linecap="round" stroke-miterlimit="4" stroke-width="2" d="M12.227 19.773l7.547-7.547M19.773 19.773l-7.547-7.547M12 29.333h8c6.667 0 9.333-2.667 9.333-9.333v-8c0-6.667-2.667-9.333-9.333-9.333h-8c-6.667 0-9.333 2.667-9.333 9.333v8c0 6.667 2.667 9.333 9.333 9.333z"></path>
</symbol>
<symbol id="icon-search" viewBox="0 0 32 32">
<path  stroke="#72b7f2"  stroke-linecap="round" stroke-miterlimit="4" stroke-width="2" d="M29.333 29.333l-2.667-2.667M15.333 28c1.663 0 3.311-0.328 4.847-0.964s2.933-1.57 4.109-2.746c1.176-1.176 2.109-2.573 2.746-4.109s0.964-3.184 0.964-4.847-0.328-3.311-0.964-4.847c-0.637-1.537-1.57-2.933-2.746-4.109s-2.573-2.109-4.109-2.746-3.184-0.964-4.847-0.964c-3.359 0-6.581 1.335-8.957 3.71s-3.71 5.597-3.71 8.957c0 3.359 1.335 6.581 3.71 8.957s5.597 3.71 8.957 3.71v0z"></path>
</symbol>
<symbol id="icon-burger_menu" viewBox="0 0 32 32">
<path  stroke="#72b7f2"  stroke-linejoin="miter" stroke-linecap="round" stroke-miterlimit="4" stroke-width="2.6667" d="M4 9.333h24.381M4 16.191h24.381M4 23.048h24.381"></path>
</symbol>
</defs>
</svg>
