<svg xmlns="http://www.w3.org/2000/svg" width="140" height="171" viewBox="0 0 140 171" fill="none">
  <g clip-path="url(#clip0_1_20146)">
    <path d="M7.39874 163.342C2.70311 158.718 0.0707183 152.528 -0.000427533 146.054C-0.0715734 139.579 2.34738 133.461 6.90072 128.908L24.1892 111.619L27.6753 115.105L10.3869 132.394C6.75843 136.022 4.76634 140.931 4.83749 146.125C4.90864 151.319 7.04301 156.299 10.7426 159.998C18.4975 167.753 30.8769 167.895 38.3472 160.354L43.2562 155.445C47.8096 150.892 53.857 148.473 60.4024 148.544C66.9478 148.615 73.0663 151.247 77.762 155.943C87.3667 165.548 87.5801 181.057 78.26 190.378L58.0546 210.583L54.5684 207.097L74.7738 186.891C82.3153 179.35 82.1019 166.971 74.4181 159.287C70.6474 155.516 65.7383 153.453 60.5447 153.382C55.351 153.311 50.442 155.303 46.8135 158.931L41.9045 163.84C32.4421 173.231 17.0034 173.018 7.39874 163.342Z" fill="#B8CDE0"/>
    <path d="M135.96 59.1135L79.3992 115.674C64.3874 130.686 39.7709 130.331 24.4034 114.892C9.03593 99.5244 8.68021 74.9079 23.6208 59.8961L80.1818 3.33519C84.3794 -0.862414 91.2094 -0.720123 95.5493 3.54863L135.747 43.746C140.015 48.0859 140.087 54.9159 135.96 59.1135Z" fill="#F3DFEA"/>
    <path d="M135.676 44.5284L94.7669 3.61954C90.427 -0.720354 83.3836 -0.862646 79.1148 3.4061L21.5578 60.9631C6.33262 76.1883 6.68835 101.232 22.3404 116.955C37.9925 132.607 63.0359 132.963 78.3322 117.737L135.889 60.1093C140.158 55.9117 140.016 48.8683 135.676 44.5284ZM74.7749 114.18C61.4706 127.484 39.4866 127.2 25.7554 113.469C12.0243 99.7376 11.7397 77.8246 25.044 64.4492L82.601 6.89225C84.9488 4.54444 88.8618 4.61558 91.2807 7.03454L132.19 47.9434C134.609 50.3624 134.68 54.2754 132.332 56.6232L74.7749 114.18Z" fill="#BACEE3"/>
    <path d="M101.881 68.8605L91.4223 58.4732L101.596 48.2994L90.9955 37.6986L80.8216 47.8725L70.3632 37.4141L60.1182 47.7302L70.5055 58.1175L60.4027 68.2914L70.9323 78.8921L81.1062 68.7182L91.5646 79.1767L101.881 68.8605Z" fill="white"/>
  </g>
  <defs>
    <clipPath id="clip0_1_20146">
      <rect width="139.019" height="210.307" fill="white" transform="translate(0 0.275391)"/>
    </clipPath>
  </defs>
</svg>