<svg xmlns="http://www.w3.org/2000/svg" width="188" height="216" viewBox="0 0 188 216" fill="none">
  <g clip-path="url(#clip0_401_471)">
    <path d="M113.871 11.3516C107.52 10.635 101.139 11.0581 95.2126 12.5027C86.76 14.5628 79.0962 18.5923 72.6596 24.2782C66.3201 29.9405 61.2813 37.1384 58.2257 45.294C45.1736 33.5507 27.1064 29.1026 10.2984 33.1993C4.37193 34.6438 -1.39124 37.1807 -6.79678 40.7626C-30.9049 57.1373 -37.2107 89.9642 -20.9332 114.096C-19.1541 116.75 -15.2072 121.964 -8.16599 128.894C-6.79186 130.308 -5.22342 131.676 -3.60763 133.238C8.02053 143.784 26.0342 157.303 53.2369 171.361L93.9806 192.411L120.566 154.95C139.937 127.585 149.864 105.815 154.949 90.7834C155.665 88.6533 156.307 86.644 156.803 84.8764C158.955 77.6614 159.786 72.6214 160.068 69.9794C163.61 41.0168 142.907 14.7731 113.871 11.3516ZM116.315 151.869L92.5173 185.563L55.8845 166.599C34.7023 155.705 16.8969 143.885 2.9018 131.651L78.9748 113.109L79.5539 76.6348L109.835 148.508L109.921 84.6723L125.538 117.92L128.328 97.2718L149.143 92.3014C143.897 105.828 134.463 126.243 116.315 151.869ZM154.881 69.391C154.601 71.6207 153.821 76.4426 151.815 83.4159C151.445 84.4324 151.173 85.4252 150.9 86.418L123.284 93.0461L122.47 99.4201L104.458 60.9924L104.363 122.257L74.3922 51.2346L73.542 108.978L-2.04517 127.402C-2.86491 126.572 -3.66097 125.84 -4.45703 125.108C-11.2329 118.422 -14.9144 113.452 -16.5017 111.163C-31.1446 89.5149 -25.4885 59.9342 -3.84027 45.2913C0.932531 42.0695 6.03929 39.7955 11.5772 38.4457C26.9278 34.7042 43.0567 38.8014 54.6849 49.3477L60.499 54.6209L63.2346 47.2639C68.7059 32.5497 81.1407 21.4906 96.4913 17.7491C101.932 16.423 107.61 16.0684 113.33 16.7328C125.933 18.1897 137.15 24.5134 145.022 34.4313C152.895 44.3491 156.338 56.7875 154.881 69.391Z" fill="#B0C5D7"/>
  </g>
  <defs>
    <clipPath id="clip0_401_471">
      <rect width="193" height="174.6" fill="white" transform="translate(-41 45.7031) rotate(-13.698)"/>
    </clipPath>
  </defs>
</svg>