<svg xmlns="http://www.w3.org/2000/svg" width="171" height="246" viewBox="0 0 171 246" fill="none">
  <g clip-path="url(#clip0_1_20157)">
    <path d="M51.0947 110.353C72.5096 121.381 99.9008 131.199 115.339 115.76C130.849 100.251 120.96 72.9305 109.932 51.5156L104.668 61.1915C104.668 61.1915 114.201 81.3257 97.553 97.9739C80.9048 114.622 60.7706 105.088 60.7706 105.088L51.0947 110.353Z" fill="white"/>
    <path d="M117.047 117.468C139.173 95.3414 113.988 52.6539 101.893 32.1639C95.4185 21.2786 82.3277 2.63835 66.6044 0.646268C59.561 -0.207482 52.8733 2.35377 46.8259 8.40116L50.2409 11.8162C55.2211 6.83595 60.4147 4.70158 65.9641 5.41304C80.1221 7.19168 92.8572 26.4011 97.6952 34.5828C108.296 52.5116 133.055 94.5588 113.632 114.053C94.1379 133.547 52.0907 108.717 34.1619 98.1161C25.9802 93.2781 6.84193 80.543 4.99214 66.385C4.28068 60.7645 6.34391 55.642 11.3953 50.6618L7.98027 47.2468C1.93287 53.2942 -0.628381 59.9819 0.225369 67.0253C1.07912 73.7842 6.34391 87.3019 31.6718 102.314C52.233 114.408 94.9205 139.594 117.047 117.468Z" fill="#BBD0E0"/>
    <path d="M163.577 194.305C168.06 189.823 170.55 183.847 170.55 177.444C170.55 171.112 168.06 165.064 163.577 160.582L117.048 114.053L113.633 117.468L160.162 163.997C163.791 167.626 165.712 172.392 165.712 177.444C165.712 182.495 163.72 187.262 160.162 190.89C152.763 198.289 140.668 198.289 133.269 190.89L99.0482 156.669C94.566 152.187 88.5897 149.697 82.1866 149.697C75.7835 149.697 69.8072 152.187 65.325 156.669C56.0049 165.989 56.0049 181.072 65.325 190.392L106.376 231.443L109.791 228.028L68.74 186.977C61.3409 179.578 61.3409 167.483 68.74 160.084C72.2973 156.527 77.1353 154.535 82.1866 154.535C87.238 154.535 92.0047 156.527 95.6332 160.084L129.854 194.305C139.174 203.554 154.257 203.554 163.577 194.305Z" fill="#BBCFDE"/>
    <path d="M108.083 245.602C116.846 245.602 123.949 238.499 123.949 229.737C123.949 220.974 116.846 213.871 108.083 213.871C99.321 213.871 92.2178 220.974 92.2178 229.737C92.2178 238.499 99.321 245.602 108.083 245.602Z" fill="#BBD0E0"/>
    <path d="M108.083 237.704C112.483 237.704 116.051 234.137 116.051 229.736C116.051 225.335 112.483 221.768 108.083 221.768C103.682 221.768 100.114 225.335 100.114 229.736C100.114 234.137 103.682 237.704 108.083 237.704Z" fill="#FACF4F"/>
  </g>
  <defs>
    <clipPath id="clip0_1_20157">
      <rect width="170.465" height="245.097" fill="white" transform="translate(0.0839844 0.503906)"/>
    </clipPath>
  </defs>
</svg>