<svg xmlns="http://www.w3.org/2000/svg" width="206" height="124" viewBox="0 0 206 124" fill="none">
  <g clip-path="url(#clip0_441_473)">
    <path d="M165.4 -15.6992L139.8 -41.2992C137.5 -43.5992 134.6 -44.6992 131.6 -44.6992C128.6 -44.6992 125.7 -43.5992 123.4 -41.2992L31.2996 50.8008C26.7996 55.3008 26.7996 62.7008 31.2996 67.2008L42.0996 78.0008L0.799609 119.301C-0.300391 120.401 -0.300391 122.201 0.799609 123.301C1.29961 123.801 2.09961 124.101 2.79961 124.101C3.49961 124.101 4.19961 123.801 4.79961 123.301L46.0996 82.0008L56.8996 92.8008C59.1996 95.1008 62.0996 96.2008 65.0996 96.2008C68.0996 96.2008 70.9996 95.1008 73.2996 92.8008L87.5996 78.5008L91.5996 74.5008L165.4 0.700779C169.9 -3.79922 169.9 -11.1992 165.4 -15.6992ZM161.4 -3.29922L156.5 1.60078L139.5 -15.3992L135.5 -11.3992L152.5 5.60078L146.2 11.9008L139.7 5.40078L135.7 9.40078L142.2 15.9008L136.9 21.2008L119.9 4.20078L115.9 8.20078L132.9 25.2008L126.6 31.5008L120.1 25.0008L116.1 29.0008L122.6 35.5008L117.2 40.9008L100.2 23.9008L96.1996 27.9008L113.2 44.9008L106.9 51.2008L100.4 44.7008L96.3996 48.7008L102.9 55.2008L96.5996 61.5008L79.5996 44.5008L75.5996 48.5008L92.5996 65.5008L87.1996 70.9008L80.9996 64.0008L76.9996 68.0008L83.4996 74.5008L78.0996 79.9008L61.0996 62.9008L57.0996 66.9008L74.0996 83.9008L69.1996 88.8008C68.0996 89.9008 66.5996 90.6008 64.9996 90.6008C63.3996 90.6008 61.8996 90.0008 60.7996 88.8008L35.1996 63.2008C32.8996 60.9008 32.8996 57.1008 35.1996 54.7008L127.3 -37.3992C128.4 -38.4992 129.9 -39.1992 131.5 -39.1992C133.1 -39.1992 134.6 -38.5992 135.7 -37.3992L161.3 -11.7992C162.4 -10.6992 163.1 -9.19921 163.1 -7.59922C163.2 -5.89922 162.5 -4.39922 161.4 -3.29922Z" fill="#B9CEDF"/>
  </g>
  <defs>
    <clipPath id="clip0_441_473">
      <rect width="206" height="206" fill="white" transform="translate(0 -82)"/>
    </clipPath>
  </defs>
</svg>