<svg xmlns="http://www.w3.org/2000/svg" width="124" height="92" viewBox="0 0 124 92" fill="none">
  <g clip-path="url(#clip0_1_20131)">
    <path d="M103.146 21.9379L103.144 21.9408L72.9498 52.1346L40.309 19.4938L70.5029 -10.7C79.4753 -19.6724 94.097 -19.677 103.145 -10.6986C112.191 -1.65128 112.186 12.9661 103.146 21.9379Z" fill="#CEF2F0" stroke="#ABC4D9" stroke-width="2.13438"/>
    <path d="M73.02 53.6441L42.1427 84.5214C32.6803 93.9838 17.4551 93.9838 7.99266 84.5214C3.29703 79.8258 0.949219 73.6361 0.949219 67.4464C0.949219 61.2567 3.29703 55.0671 7.99266 50.3714L38.8699 19.4941L73.02 53.6441Z" fill="#D0E1F1"/>
    <path d="M38.8708 19.4941L7.92234 50.3714C3.22672 55.0671 0.878906 61.2567 0.878906 67.4464C0.878906 73.6361 3.22672 79.8258 7.92234 84.5214C12.618 89.2171 18.8077 91.5649 24.9973 91.5649C31.187 91.5649 37.3767 89.2171 42.0723 84.5214L72.9496 53.6441L38.8708 19.4941ZM39.6534 82.1025C35.7404 86.0155 30.5467 88.1499 25.0685 88.1499C19.5191 88.1499 14.3255 86.0155 10.4836 82.1025C6.57057 78.1894 4.4362 72.9958 4.4362 67.5176C4.4362 61.9682 6.57057 56.7746 10.4836 52.9327L38.9419 24.4743L68.1829 53.7153L39.6534 82.1025Z" fill="#ABC4D9"/>
    <path d="M119.763 81.8186L89.2412 51.297C97.7787 45.6054 109.447 46.5303 116.988 54.0717C124.53 61.6132 125.454 73.2811 119.763 81.8186Z" fill="#D0E1F1"/>
    <path d="M119.763 81.8184C119.763 81.8896 119.692 81.8896 119.692 81.9607C118.909 83.0991 118.056 84.1663 116.988 85.2334C115.992 86.2295 114.854 87.1544 113.716 87.937C113.644 87.937 113.644 88.0081 113.573 88.0081L83.0518 57.4866C83.0518 57.4154 83.1229 57.4154 83.1229 57.3443C83.9055 56.2059 84.7593 55.1388 85.8264 54.0716C86.8225 53.0755 87.9608 52.1506 89.0992 51.368C89.1703 51.368 89.1703 51.2969 89.2414 51.2969L119.763 81.8184Z" fill="#CEF2F0"/>
    <path d="M116.989 54.07C112.721 49.8012 107.029 47.5957 101.408 47.5957V51.0819C106.389 51.0819 111.013 53.0028 114.499 56.4889C120.76 62.7498 121.756 72.639 116.776 79.9671C116.136 80.9631 115.353 81.888 114.499 82.6706C113.645 83.5243 112.721 84.2358 111.724 84.9473C108.665 87.0105 105.108 88.1488 101.337 88.1488C96.357 88.1488 91.7325 86.2279 88.2463 82.7417C81.9855 76.4809 80.9895 66.5916 85.9697 59.2636C86.61 58.2676 87.3926 57.3427 88.2463 56.5601C89.1001 55.7063 90.025 54.9949 91.021 54.2834C94.0803 52.2202 97.6376 51.0819 101.408 51.0819V47.5957C97.1396 47.5957 92.7997 48.8763 89.1001 51.3664C87.9618 52.149 86.8946 53.0028 85.8274 54.07C84.8313 55.066 83.9064 56.2043 83.1238 57.3427C77.361 65.8802 78.2148 77.6192 85.8274 85.2319C90.0961 89.5006 95.7878 91.7061 101.408 91.7061C105.677 91.7061 110.017 90.4255 113.717 87.9354C114.855 87.1528 115.922 86.299 116.989 85.2319C117.985 84.2358 118.91 83.0975 119.693 81.9591C125.456 73.3505 124.602 61.6114 116.989 54.07Z" fill="#ABC4D9"/>
  </g>
  <defs>
    <clipPath id="clip0_1_20131">
      <rect width="122.584" height="110.134" fill="white" transform="translate(0.878906 -18.498)"/>
    </clipPath>
  </defs>
</svg>